<?xml version="1.0" standalone="no"?><!DOCTYPE svg PUBLIC "-//W3C//DTD SVG 1.1//EN" "http://www.w3.org/Graphics/SVG/1.1/DTD/svg11.dtd"><svg t="1729504407690" class="icon" viewBox="0 0 1024 1024" version="1.1" xmlns="http://www.w3.org/2000/svg" p-id="1739" xmlns:xlink="http://www.w3.org/1999/xlink" width="200" height="200"><path d="M0 0h1024v1024H0V0z" fill="#202425" opacity=".01" p-id="1740"></path><path d="M989.866667 512c0 263.918933-213.947733 477.866667-477.866667 477.866667S34.133333 775.918933 34.133333 512 248.081067 34.133333 512 34.133333s477.866667 213.947733 477.866667 477.866667z" fill="#FF7744" p-id="1741"></path><path d="M305.152 305.152a51.2 51.2 0 0 1 72.362667 0L512 439.569067l134.485333-134.485334a51.2 51.2 0 0 1 72.362667 72.430934L584.430933 512l134.485334 134.485333a51.2 51.2 0 0 1-72.430934 72.362667L512 584.430933l-134.485333 134.485334a51.2 51.2 0 0 1-72.362667-72.430934L439.569067 512l-134.485334-134.485333a51.2 51.2 0 0 1 0-72.362667z" fill="#FFFFFF" p-id="1742"></path></svg>